<?xml version="1.0" encoding="UTF-8" standalone="no" ?>
<!DOCTYPE svg PUBLIC "-//W3C//DTD SVG 1.1//EN" "http://www.w3.org/Graphics/SVG/1.1/DTD/svg11.dtd">
<svg xmlns="http://www.w3.org/2000/svg" xmlns:xlink="http://www.w3.org/1999/xlink" version="1.1" width="1280" height="1024" viewBox="0 0 1280 1024" xml:space="preserve">
<desc>Created with Fabric.js 5.3.0</desc>
<defs>
</defs>
<g transform="matrix(1 0 0 1 640 512)" id="background-logo"  >
<rect style="stroke: none; stroke-width: 0; stroke-dasharray: none; stroke-linecap: butt; stroke-dashoffset: 0; stroke-linejoin: miter; stroke-miterlimit: 4; fill: rgb(12,19,29); fill-rule: nonzero; opacity: 1;"  paint-order="stroke"  x="-640" y="-512" rx="0" ry="0" width="1280" height="1024" />
</g>
<g transform="matrix(1.9211538461538462 0 0 1.9211538461538462 640 395.6864080388972)" id="logo-logo"  >
<g style=""  paint-order="stroke"   >
		<g transform="matrix(0.917930923744532 0 0 0.9179309237445321 0 0)"  >
<g style=""  paint-order="stroke"   >
		<g transform="matrix(1 0 0 1 0 0)"  >
<linearGradient id="SVGID_2_491110" gradientUnits="userSpaceOnUse" gradientTransform="matrix(1 0 0 1 -100 -100)"  x1="0" y1="0" x2="0" y2="200">
<stop offset="0%" style="stop-color:rgb(23,234,217);stop-opacity: 1"/>
<stop offset="100%" style="stop-color:rgb(96,120,234);stop-opacity: 1"/>
</linearGradient>
<polygon style="stroke: none; stroke-width: 1; stroke-dasharray: none; stroke-linecap: butt; stroke-dashoffset: 0; stroke-linejoin: miter; stroke-miterlimit: 4; fill: url(#SVGID_2_491110); fill-rule: nonzero; opacity: 1;"  paint-order="stroke"  points="100,100 0,100 0,95.12 95.12,95.12 95.12,-95.12 -95.12,-95.12 -95.12,0 -100,0 -100,-100 100,-100 100,100 " />
</g>
</g>
</g>
</g>
</g>
<g transform="matrix(1.9211538461538462 0 0 1.9211538461538462 637.8338990384615 667.1128161574082)" id="text-logo"  >
<g style=""  paint-order="stroke"   >
		<g transform="matrix(1 0 0 1 0 0)" id="text-logo-path-0"  >
<path style="stroke: rgb(255,255,255); stroke-width: 0; stroke-dasharray: none; stroke-linecap: butt; stroke-dashoffset: 0; stroke-linejoin: miter; stroke-miterlimit: 4; fill: rgb(49,192,223); fill-rule: nonzero; opacity: 1;"  paint-order="stroke"  transform=" translate(-173.25, 19.25)" d="M 2.2 -38.5 L 10.29 0 L 16.06 0 L 24.14 -38.5 L 20.3 -38.5 L 13.2 -4.57 L 6.05 -38.5 Z M 50.98 0 L 54.84 0 L 54.84 -14.3 L 58.69 -14.3 L 65.56 0 L 69.69 0 L 62.64 -14.74 C 65.89 -15.56 68.03 -17.82 68.03 -23.1 L 68.03 -29.7 C 68.03 -37.07 63.91 -38.5 58.69 -38.5 L 50.98 -38.5 Z M 54.84 -17.6 L 54.84 -35.2 L 58.69 -35.2 C 62.04 -35.2 64.19 -34.16 64.19 -29.15 L 64.19 -23.65 C 64.19 -18.64 62.04 -17.6 58.69 -17.6 Z M 96.52 -38.5 L 96.52 0 L 113.02 0 L 113.02 -3.3 L 100.37 -3.3 L 100.37 -17.6 L 109.72 -17.6 L 109.72 -20.9 L 100.37 -20.9 L 100.37 -35.2 L 112.47 -35.2 L 112.47 -38.5 Z M 154.44 -29.15 L 154.44 -23.65 L 158.29 -23.65 L 158.29 -30.25 C 158.29 -37.62 154.16 -39.05 148.94 -39.05 C 143.77 -39.05 139.59 -37.62 139.59 -30.25 L 139.59 -8.25 C 139.59 -0.88 143.77 0.55 148.94 0.55 C 154.16 0.55 158.29 -0.99 158.29 -8.25 L 158.29 -10.56 L 154.44 -10.56 L 154.44 -9.35 C 154.44 -4.34 152.29 -3.3 148.94 -3.3 C 145.58 -3.3 143.44 -4.34 143.44 -9.35 L 143.44 -29.15 C 143.44 -34.16 145.58 -35.2 148.94 -35.2 C 152.29 -35.2 154.44 -34.16 154.44 -29.15 Z M 186.23 -30.25 L 186.23 -8.25 C 186.23 -0.88 190.41 0.55 195.58 0.55 C 200.81 0.55 204.93 -0.99 204.93 -8.25 L 204.93 -30.25 C 204.93 -37.62 200.81 -39.05 195.58 -39.05 C 190.41 -39.05 186.23 -37.62 186.23 -30.25 Z M 190.08 -9.35 L 190.08 -29.15 C 190.08 -34.16 192.22 -35.2 195.58 -35.2 C 198.94 -35.2 201.08 -34.16 201.08 -29.15 L 201.08 -9.35 C 201.08 -4.34 198.94 -3.3 195.58 -3.3 C 192.22 -3.3 190.08 -4.34 190.08 -9.35 Z M 234.25 0 L 238.09 0 L 238.09 -14.3 L 241.94 -14.3 L 248.82 0 L 252.94 0 L 245.91 -14.74 C 249.15 -15.56 251.3 -17.82 251.3 -23.1 L 251.3 -29.7 C 251.3 -37.07 247.17 -38.5 241.94 -38.5 L 234.25 -38.5 Z M 238.09 -17.6 L 238.09 -35.2 L 241.94 -35.2 C 245.3 -35.2 247.44 -34.16 247.44 -29.15 L 247.44 -23.65 C 247.44 -18.64 245.3 -17.6 241.94 -17.6 Z M 288.04 -38.5 L 279.79 -38.5 L 279.79 0 L 288.04 0 C 293.26 0 297.39 -1.54 297.39 -8.8 L 297.39 -29.7 C 297.39 -37.07 293.26 -38.5 288.04 -38.5 Z M 283.64 -35.2 L 288.04 -35.2 C 291.39 -35.2 293.54 -34.16 293.54 -29.15 L 293.54 -9.35 C 293.54 -4.34 291.39 -3.3 288.04 -3.3 L 283.64 -3.3 Z M 334.95 0.55 C 340.12 0.55 344.3 -0.88 344.3 -8.25 L 344.3 -9.35 C 344.3 -18.21 329.45 -23.87 329.45 -29.15 C 329.45 -34.16 331.59 -35.2 334.95 -35.2 C 338.31 -35.2 340.45 -34.16 340.45 -29.15 L 340.45 -26.95 L 344.3 -26.95 L 344.3 -30.25 C 344.3 -37.62 340.18 -39.05 334.95 -39.05 C 329.78 -39.05 325.6 -37.62 325.6 -30.25 L 325.6 -29.15 C 325.6 -21.23 340.45 -15.56 340.45 -9.35 C 340.45 -4.34 338.31 -3.3 334.95 -3.3 C 331.59 -3.3 329.45 -4.34 329.45 -9.35 L 329.45 -12.21 L 325.6 -12.21 L 325.6 -8.25 C 325.6 -0.99 329.72 0.55 334.95 0.55 Z" stroke-linecap="round" />
</g>
</g>
</g>
<g transform="matrix(1.9211538461538462 0 0 1.9211538461538462 639.9221932692308 399.4872725040416)" id="tagline-3a78d944-c0db-44d4-8ad5-60158c925687-logo"  >
<g style=""  paint-order="stroke"   >
		<g transform="matrix(1 0 0 1 0 0)" id="tagline-3a78d944-c0db-44d4-8ad5-60158c925687-logo-path-0"  >
<linearGradient id="SVGID_491111" gradientUnits="userSpaceOnUse" gradientTransform="matrix(1 0 0 1 3.2399999999999984 -56.7)"  x1="-3.1995006179809593" y1="-14.510339999999985" x2="-3.1995006179809593" y2="77.48966000000001">
<stop offset="0%" style="stop-color:rgb(23,234,217);stop-opacity: 1"/>
<stop offset="100%" style="stop-color:rgb(96,120,234);stop-opacity: 1"/>
</linearGradient>
<path style="stroke: rgb(255,255,255); stroke-width: 0; stroke-dasharray: none; stroke-linecap: butt; stroke-dashoffset: 0; stroke-linejoin: miter; stroke-miterlimit: 4; fill: url(#SVGID_491111); fill-rule: nonzero; opacity: 1;"  paint-order="stroke"  transform=" translate(-19.4, 28.35)" d="M 3.24 -56.7 L 15.15 0 L 23.65 0 L 35.56 -56.7 L 29.89 -56.7 L 19.44 -6.72 L 8.91 -56.7 Z" stroke-linecap="round" />
</g>
</g>
</g>
<g transform="matrix(1.9211538461538462 0 0 1.9211538461538462 629.5354749999998 765.7758236189467)" id="tagline-ee21041c-fd7a-4646-a088-df0a2334375e-logo"  >
<g style=""  paint-order="stroke"   >
		<g transform="matrix(1 0 0 1 0 -8.520199999999988)" id="tagline-ee21041c-fd7a-4646-a088-df0a2334375e-logo-path-0"  >
<path style="stroke: none; stroke-width: 0; stroke-dasharray: none; stroke-linecap: butt; stroke-dashoffset: 0; stroke-linejoin: miter; stroke-miterlimit: 4; fill: rgb(63,171,226); fill-rule: nonzero; opacity: 1;"  paint-order="stroke"  transform=" translate(-162.97, 4.55)" d="M 4.68 -9.1 L 0.39 -9.1 L 0.39 -8.32 L 2.08 -8.32 L 2.08 0 L 2.99 0 L 2.99 -8.32 L 4.68 -8.32 Z M 14 0 L 14.91 0 L 14.91 -3.38 L 15.82 -3.38 L 17.45 0 L 18.42 0 L 16.76 -3.48 C 17.52 -3.68 18.03 -4.21 18.03 -5.46 L 18.03 -7.02 C 18.03 -8.76 17.06 -9.1 15.82 -9.1 L 14 -9.1 Z M 14.91 -4.16 L 14.91 -8.32 L 15.82 -8.32 C 16.61 -8.32 17.12 -8.07 17.12 -6.89 L 17.12 -5.59 C 17.12 -4.41 16.61 -4.16 15.82 -4.16 Z M 28.65 -2.21 L 28.65 -9.1 L 27.74 -9.1 L 27.74 -1.95 C 27.74 -0.21 28.73 0.13 29.95 0.13 C 31.19 0.13 32.16 -0.21 32.16 -1.95 L 32.16 -9.1 L 31.25 -9.1 L 31.25 -2.21 C 31.25 -1.03 30.75 -0.78 29.95 -0.78 C 29.16 -0.78 28.65 -1.03 28.65 -2.21 Z M 44.21 0.13 C 45.44 0.13 46.42 -0.21 46.42 -1.95 L 46.42 -2.21 C 46.42 -4.3 42.91 -5.64 42.91 -6.89 C 42.91 -8.07 43.42 -8.32 44.21 -8.32 C 45.01 -8.32 45.51 -8.07 45.51 -6.89 L 45.51 -6.37 L 46.42 -6.37 L 46.42 -7.15 C 46.42 -8.89 45.45 -9.23 44.21 -9.23 C 42.99 -9.23 42 -8.89 42 -7.15 L 42 -6.89 C 42 -5.02 45.51 -3.68 45.51 -2.21 C 45.51 -1.03 45.01 -0.78 44.21 -0.78 C 43.42 -0.78 42.91 -1.03 42.91 -2.21 L 42.91 -2.89 L 42 -2.89 L 42 -1.95 C 42 -0.23 42.98 0.13 44.21 0.13 Z M 59.77 -9.1 L 55.48 -9.1 L 55.48 -8.32 L 57.17 -8.32 L 57.17 0 L 58.08 0 L 58.08 -8.32 L 59.77 -8.32 Z M 69.09 -9.1 L 69.09 0 L 73 0 L 73 -0.78 L 70 -0.78 L 70 -4.16 L 72.22 -4.16 L 72.22 -4.94 L 70 -4.94 L 70 -8.32 L 72.87 -8.32 L 72.87 -9.1 Z M 84.53 -9.1 L 82.58 -9.1 L 82.58 0 L 84.53 0 C 85.76 0 86.74 -0.36 86.74 -2.08 L 86.74 -7.02 C 86.74 -8.76 85.76 -9.1 84.53 -9.1 Z M 83.49 -8.32 L 84.53 -8.32 C 85.32 -8.32 85.83 -8.07 85.83 -6.89 L 85.83 -2.21 C 85.83 -1.03 85.32 -0.78 84.53 -0.78 L 83.49 -0.78 Z M 107 -9.1 L 107 0 L 107.91 0 L 107.91 -4.16 L 110.12 -4.16 L 110.12 -4.94 L 107.91 -4.94 L 107.91 -8.32 L 110.77 -8.32 L 110.77 -9.1 Z M 121.91 -9.1 L 119.83 -9.1 L 119.83 -8.32 L 120.42 -8.32 L 120.42 -0.78 L 119.83 -0.78 L 119.83 0 L 121.91 0 L 121.91 -0.78 L 121.33 -0.78 L 121.33 -8.32 L 121.91 -8.32 Z M 131.75 -9.1 L 131.75 0 L 132.66 0 L 132.66 -6.89 L 135.5 0 L 136.41 0 L 136.41 -9.1 L 135.5 -9.1 L 135.5 -2.21 L 132.66 -9.1 Z M 145.86 0 L 146.77 0 L 147.29 -2.47 L 149.62 -2.47 L 150.14 0 L 151.05 0 L 149.14 -9.1 L 147.77 -9.1 Z M 147.46 -3.25 L 148.46 -8.02 L 149.46 -3.25 Z M 160.5 -9.1 L 160.5 0 L 161.41 0 L 161.41 -6.89 L 164.24 0 L 165.15 0 L 165.15 -9.1 L 164.24 -9.1 L 164.24 -2.21 L 161.41 -9.1 Z M 178.7 -6.89 L 178.7 -5.59 L 179.61 -5.59 L 179.61 -7.15 C 179.61 -8.89 178.63 -9.23 177.4 -9.23 C 176.18 -9.23 175.19 -8.89 175.19 -7.15 L 175.19 -1.95 C 175.19 -0.21 176.18 0.13 177.4 0.13 C 178.63 0.13 179.61 -0.23 179.61 -1.95 L 179.61 -2.5 L 178.7 -2.5 L 178.7 -2.21 C 178.7 -1.03 178.19 -0.78 177.4 -0.78 C 176.6 -0.78 176.1 -1.03 176.1 -2.21 L 176.1 -6.89 C 176.1 -8.07 176.6 -8.32 177.4 -8.32 C 178.19 -8.32 178.7 -8.07 178.7 -6.89 Z M 191.2 -9.1 L 189.12 -9.1 L 189.12 -8.32 L 189.71 -8.32 L 189.71 -0.78 L 189.12 -0.78 L 189.12 0 L 191.2 0 L 191.2 -0.78 L 190.62 -0.78 L 190.62 -8.32 L 191.2 -8.32 Z M 200.26 0 L 201.17 0 L 201.69 -2.47 L 204.02 -2.47 L 204.54 0 L 205.45 0 L 203.54 -9.1 L 202.18 -9.1 Z M 201.86 -3.25 L 202.86 -8.02 L 203.87 -3.25 Z M 214.9 -9.1 L 214.9 0 L 218.15 0 L 218.15 -0.78 L 215.81 -0.78 L 215.81 -9.1 Z M 237.57 0 L 238.48 0 L 238.48 -3.38 L 239.39 -3.38 L 241.02 0 L 241.99 0 L 240.33 -3.48 C 241.1 -3.68 241.6 -4.21 241.6 -5.46 L 241.6 -7.02 C 241.6 -8.76 240.63 -9.1 239.39 -9.1 L 237.57 -9.1 Z M 238.48 -4.16 L 238.48 -8.32 L 239.39 -8.32 C 240.19 -8.32 240.69 -8.07 240.69 -6.89 L 240.69 -5.59 C 240.69 -4.41 240.19 -4.16 239.39 -4.16 Z M 251.45 -9.1 L 251.45 0 L 255.35 0 L 255.35 -0.78 L 252.36 -0.78 L 252.36 -4.16 L 254.57 -4.16 L 254.57 -4.94 L 252.36 -4.94 L 252.36 -8.32 L 255.22 -8.32 L 255.22 -9.1 Z M 268.24 -6.89 L 268.24 -5.59 L 269.15 -5.59 L 269.15 -7.15 C 269.15 -8.89 268.18 -9.23 266.94 -9.23 C 265.72 -9.23 264.73 -8.89 264.73 -7.15 L 264.73 -1.95 C 264.73 -0.21 265.72 0.13 266.94 0.13 C 268.18 0.13 269.15 -0.23 269.15 -1.95 L 269.15 -2.5 L 268.24 -2.5 L 268.24 -2.21 C 268.24 -1.03 267.73 -0.78 266.94 -0.78 C 266.15 -0.78 265.64 -1.03 265.64 -2.21 L 265.64 -6.89 C 265.64 -8.07 266.15 -8.32 266.94 -8.32 C 267.73 -8.32 268.24 -8.07 268.24 -6.89 Z M 278.86 -7.15 L 278.86 -1.95 C 278.86 -0.21 279.85 0.13 281.07 0.13 C 282.31 0.13 283.28 -0.23 283.28 -1.95 L 283.28 -7.15 C 283.28 -8.89 282.31 -9.23 281.07 -9.23 C 279.85 -9.23 278.86 -8.89 278.86 -7.15 Z M 279.77 -2.21 L 279.77 -6.89 C 279.77 -8.07 280.28 -8.32 281.07 -8.32 C 281.87 -8.32 282.37 -8.07 282.37 -6.89 L 282.37 -2.21 C 282.37 -1.03 281.87 -0.78 281.07 -0.78 C 280.28 -0.78 279.77 -1.03 279.77 -2.21 Z M 293.32 0 L 294.23 0 L 294.23 -3.38 L 295.14 -3.38 L 296.76 0 L 297.74 0 L 296.07 -3.48 C 296.84 -3.68 297.35 -4.21 297.35 -5.46 L 297.35 -7.02 C 297.35 -8.76 296.37 -9.1 295.14 -9.1 L 293.32 -9.1 Z M 294.23 -4.16 L 294.23 -8.32 L 295.14 -8.32 C 295.93 -8.32 296.44 -8.07 296.44 -6.89 L 296.44 -5.59 C 296.44 -4.41 295.93 -4.16 295.14 -4.16 Z M 309.14 -9.1 L 307.19 -9.1 L 307.19 0 L 309.14 0 C 310.37 0 311.35 -0.36 311.35 -2.08 L 311.35 -7.02 C 311.35 -8.76 310.37 -9.1 309.14 -9.1 Z M 308.1 -8.32 L 309.14 -8.32 C 309.93 -8.32 310.44 -8.07 310.44 -6.89 L 310.44 -2.21 C 310.44 -1.03 309.93 -0.78 309.14 -0.78 L 308.1 -0.78 Z M 323.34 0.13 C 324.56 0.13 325.55 -0.21 325.55 -1.95 L 325.55 -2.21 C 325.55 -4.3 322.04 -5.64 322.04 -6.89 C 322.04 -8.07 322.54 -8.32 323.34 -8.32 C 324.13 -8.32 324.64 -8.07 324.64 -6.89 L 324.64 -6.37 L 325.55 -6.37 L 325.55 -7.15 C 325.55 -8.89 324.57 -9.23 323.34 -9.23 C 322.11 -9.23 321.13 -8.89 321.13 -7.15 L 321.13 -6.89 C 321.13 -5.02 324.64 -3.68 324.64 -2.21 C 324.64 -1.03 324.13 -0.78 323.34 -0.78 C 322.54 -0.78 322.04 -1.03 322.04 -2.21 L 322.04 -2.89 L 321.13 -2.89 L 321.13 -1.95 C 321.13 -0.23 322.1 0.13 323.34 0.13 Z" stroke-linecap="round" />
</g>
		<g transform="matrix(1 0 0 1 5.739500000000135 8.520199999999988)" id="tagline-ee21041c-fd7a-4646-a088-df0a2334375e-logo-path-1"  >
<path style="stroke: none; stroke-width: 0; stroke-dasharray: none; stroke-linecap: butt; stroke-dashoffset: 0; stroke-linejoin: miter; stroke-miterlimit: 4; fill: rgb(63,171,226); fill-rule: nonzero; opacity: 1;"  paint-order="stroke"  transform=" translate(-130.865, 4.55)" d="M 5.53 -4.55 L 3.19 -4.55 L 3.19 -3.77 L 4.62 -3.77 L 4.62 -2.21 C 4.62 -1.03 4.11 -0.78 3.32 -0.78 C 2.52 -0.78 2.02 -1.03 2.02 -2.21 L 2.02 -6.89 C 2.02 -8.07 2.52 -8.32 3.32 -8.32 C 4.11 -8.32 4.62 -8.07 4.62 -6.89 L 4.62 -5.59 L 5.53 -5.59 L 5.53 -7.15 C 5.53 -8.89 4.55 -9.23 3.32 -9.23 C 2.09 -9.23 1.11 -8.89 1.11 -7.15 L 1.11 -1.95 C 1.11 -0.21 2.09 0.13 3.32 0.13 C 3.72 0.13 4.36 -0.04 4.71 -0.75 L 5.01 0 L 5.53 0 Z M 15.56 -9.1 L 15.56 0 L 19.46 0 L 19.46 -0.78 L 16.47 -0.78 L 16.47 -4.16 L 18.68 -4.16 L 18.68 -4.94 L 16.47 -4.94 L 16.47 -8.32 L 19.33 -8.32 L 19.33 -9.1 Z M 29.04 -9.1 L 29.04 0 L 29.95 0 L 29.95 -6.89 L 32.79 0 L 33.7 0 L 33.7 -9.1 L 32.79 -9.1 L 32.79 -2.21 L 29.95 -9.1 Z M 43.93 -9.1 L 43.93 0 L 47.83 0 L 47.83 -0.78 L 44.84 -0.78 L 44.84 -4.16 L 47.05 -4.16 L 47.05 -4.94 L 44.84 -4.94 L 44.84 -8.32 L 47.7 -8.32 L 47.7 -9.1 Z M 57.41 0 L 58.32 0 L 58.32 -3.38 L 59.23 -3.38 L 60.85 0 L 61.83 0 L 60.16 -3.48 C 60.93 -3.68 61.44 -4.21 61.44 -5.46 L 61.44 -7.02 C 61.44 -8.76 60.46 -9.1 59.23 -9.1 L 57.41 -9.1 Z M 58.32 -4.16 L 58.32 -8.32 L 59.23 -8.32 C 60.02 -8.32 60.53 -8.07 60.53 -6.89 L 60.53 -5.59 C 60.53 -4.41 60.02 -4.16 59.23 -4.16 Z M 70.5 0 L 71.41 0 L 71.93 -2.47 L 74.26 -2.47 L 74.78 0 L 75.69 0 L 73.78 -9.1 L 72.41 -9.1 Z M 72.1 -3.25 L 73.1 -8.02 L 74.1 -3.25 Z M 87.74 -9.1 L 83.45 -9.1 L 83.45 -8.32 L 85.14 -8.32 L 85.14 0 L 86.05 0 L 86.05 -8.32 L 87.74 -8.32 Z M 96.86 -7.15 L 96.86 -1.95 C 96.86 -0.21 97.85 0.13 99.07 0.13 C 100.31 0.13 101.28 -0.23 101.28 -1.95 L 101.28 -7.15 C 101.28 -8.89 100.31 -9.23 99.07 -9.23 C 97.85 -9.23 96.86 -8.89 96.86 -7.15 Z M 97.77 -2.21 L 97.77 -6.89 C 97.77 -8.07 98.28 -8.32 99.07 -8.32 C 99.87 -8.32 100.37 -8.07 100.37 -6.89 L 100.37 -2.21 C 100.37 -1.03 99.87 -0.78 99.07 -0.78 C 98.28 -0.78 97.77 -1.03 97.77 -2.21 Z M 111.32 0 L 112.23 0 L 112.23 -3.38 L 113.14 -3.38 L 114.76 0 L 115.74 0 L 114.08 -3.48 C 114.84 -3.68 115.35 -4.21 115.35 -5.46 L 115.35 -7.02 C 115.35 -8.76 114.37 -9.1 113.14 -9.1 L 111.32 -9.1 Z M 112.23 -4.16 L 112.23 -8.32 L 113.14 -8.32 C 113.93 -8.32 114.44 -8.07 114.44 -6.89 L 114.44 -5.59 C 114.44 -4.41 113.93 -4.16 113.14 -4.16 Z M 134.64 0 L 135.55 0 L 136.07 -2.47 L 138.4 -2.47 L 138.92 0 L 139.83 0 L 137.92 -9.1 L 136.55 -9.1 Z M 136.24 -3.25 L 137.24 -8.02 L 138.24 -3.25 Z M 149.28 -9.1 L 149.28 0 L 150.19 0 L 150.19 -6.89 L 153.02 0 L 153.93 0 L 153.93 -9.1 L 153.02 -9.1 L 153.02 -2.21 L 150.19 -9.1 Z M 166.11 -9.1 L 164.16 -9.1 L 164.16 0 L 166.11 0 C 167.35 0 168.32 -0.36 168.32 -2.08 L 168.32 -7.02 C 168.32 -8.76 167.35 -9.1 166.11 -9.1 Z M 165.07 -8.32 L 166.11 -8.32 C 166.91 -8.32 167.41 -8.07 167.41 -6.89 L 167.41 -2.21 C 167.41 -1.03 166.91 -0.78 166.11 -0.78 L 165.07 -0.78 Z M 188.6 -9.1 L 188.6 0 L 189.51 0 L 189.51 -3.85 L 189.79 -4.28 L 191.98 0 L 192.96 0 L 190.32 -5.14 L 192.78 -9.1 L 191.8 -9.1 L 189.51 -5.42 L 189.51 -9.1 Z M 202.15 -9.1 L 202.15 0 L 206.05 0 L 206.05 -0.78 L 203.06 -0.78 L 203.06 -4.16 L 205.27 -4.16 L 205.27 -4.94 L 203.06 -4.94 L 203.06 -8.32 L 205.92 -8.32 L 205.92 -9.1 Z M 215.63 -9.1 L 215.63 0 L 219.53 0 L 219.53 -0.78 L 216.54 -0.78 L 216.54 -4.16 L 218.75 -4.16 L 218.75 -4.94 L 216.54 -4.94 L 216.54 -8.32 L 219.4 -8.32 L 219.4 -9.1 Z M 228.98 0 L 229.89 0 L 229.89 -3.25 L 230.8 -3.25 C 232.04 -3.25 233.01 -3.61 233.01 -5.33 L 233.01 -7.02 C 233.01 -8.76 232.04 -9.1 230.8 -9.1 L 228.98 -9.1 Z M 229.89 -4.03 L 229.89 -8.32 L 230.8 -8.32 C 231.59 -8.32 232.1 -8.07 232.1 -6.89 L 232.1 -5.46 C 232.1 -4.28 231.59 -4.03 230.8 -4.03 Z M 242.72 -9.1 L 242.72 0 L 246.62 0 L 246.62 -0.78 L 243.63 -0.78 L 243.63 -4.16 L 245.84 -4.16 L 245.84 -4.94 L 243.63 -4.94 L 243.63 -8.32 L 246.49 -8.32 L 246.49 -9.1 Z M 256.2 0 L 257.11 0 L 257.11 -3.38 L 258.02 -3.38 L 259.65 0 L 260.62 0 L 258.96 -3.48 C 259.73 -3.68 260.23 -4.21 260.23 -5.46 L 260.23 -7.02 C 260.23 -8.76 259.26 -9.1 258.02 -9.1 L 256.2 -9.1 Z M 257.11 -4.16 L 257.11 -8.32 L 258.02 -8.32 C 258.82 -8.32 259.32 -8.07 259.32 -6.89 L 259.32 -5.59 C 259.32 -4.41 258.82 -4.16 258.02 -4.16 Z" stroke-linecap="round" />
</g>
</g>
</g>
</svg>